<svg width="260" height="300" xmlns="http://www.w3.org/2000/svg">

 <g>
  <title>background</title>
  <rect fill="none" id="canvas_background" height="302" width="262" y="-1" x="-1"/>
 </g>
 <g>
  <title>Layer 1</title>
  <g id="svg_234">
   <circle id="svg_235" r="83.977997" cy="88.366" cx="129.451" fill="#E30613"/>
   <path id="svg_236" d="m202.179,130.352c7.147,-12.354 11.25,-26.688 11.25,-41.986c0,-46.38 -37.599,-83.978 -83.979,-83.978c-46.38,0 -83.978,37.598 -83.978,83.978c0,46.379 37.598,83.978 83.978,83.978c15.163,0 29.378,-4.032 41.658,-11.063l7.723,7.724c3.891,3.889 9.993,4.09 13.632,0.453l17.818,-17.819c3.641,-3.641 3.439,-9.745 -0.45,-13.633l-7.652,-7.654zm-4.036,6.314l5.2,5.202c1.881,1.879 1.881,4.94 0,6.82l-13.829,13.83c-1.879,1.88 -4.939,1.879 -6.817,-0.001l-5.231,-5.23c0.254,-0.183 0.672,-0.484 0.808,-0.588c7.482,-5.356 14.047,-11.911 19.417,-19.383c0.099,-0.13 0.292,-0.416 0.452,-0.65z" fill="#E30613"/>
   <path id="svg_237" d="m129.451,4.388c-15.217,0 -29.481,4.063 -41.788,11.141l-7.968,-7.966c-3.928,-3.927 -10.091,-4.129 -13.766,-0.457l-17.995,17.997c-3.678,3.676 -3.471,9.839 0.457,13.766l8.042,8.043c-3.306,5.807 -5.958,12.035 -7.811,18.601c23.419,8.562 51.122,13.531 80.829,13.531c29.709,0 57.41,-4.969 80.83,-13.532c-9.954,-35.273 -42.373,-61.124 -80.83,-61.124zm-68.999,36.093l-5.511,-5.511c-1.898,-1.899 -1.898,-4.99 0,-6.889l13.966,-13.967c1.897,-1.898 4.986,-1.896 6.885,0.001l5.468,5.467c-0.22,0.157 -0.605,0.426 -0.743,0.542c-7.481,5.375 -14.037,11.95 -19.398,19.443c-0.092,0.121 -0.457,0.619 -0.667,0.914z" fill="#F08100" clip-rule="evenodd" fill-rule="evenodd"/>
   <path id="svg_238" d="m197.162,69.792c1.62,5.918 2.502,12.141 2.502,18.573c0,38.777 -31.437,70.212 -70.214,70.212c-38.777,0 -70.212,-31.435 -70.212,-70.212c0,-6.432 0.882,-12.654 2.501,-18.572c-2.296,-0.666 -4.551,-1.37 -6.779,-2.101c-1.822,6.582 -2.8,13.512 -2.8,20.672c0,42.686 34.604,77.291 77.291,77.291c42.686,0 77.291,-34.605 77.291,-77.291c0,-7.16 -0.978,-14.092 -2.8,-20.673c-2.229,0.731 -4.484,1.436 -6.78,2.101z" fill="#F08100"/>
   <path id="svg_239" d="m129.451,11.075c-35.526,0 -65.449,23.971 -74.49,56.618c2.228,0.73 4.483,1.435 6.779,2.101c8.146,-29.76 35.366,-51.64 67.711,-51.64s59.566,21.879 67.711,51.639c2.296,-0.665 4.551,-1.37 6.779,-2.1c-9.041,-32.648 -38.965,-56.618 -74.49,-56.618z" fill="#FAB600"/>
   <path id="svg_240" d="m160.564,46.688c-2.136,0 -4.221,0.456 -6.201,1.349l-4.547,2.056c-0.212,-10.561 -8.823,-19.06 -19.433,-19.06c-10.61,0 -19.223,8.499 -19.433,19.061l-4.548,-2.058c-1.984,-0.893 -4.07,-1.349 -6.203,-1.349c-8.315,0 -15.08,6.769 -15.08,15.081c0,6.699 4.504,12.661 10.954,14.491l3.524,1.005l0.703,3.591c3.474,17.78 3.976,48.417 4.035,59.996c4.507,1.057 12.802,2.504 24.438,2.504c12.26,0 22.098,-1.605 27.39,-2.706c0.146,-11.829 0.87,-42.749 4.602,-59.979l0.744,-3.448l3.377,-1.011c6.337,-1.893 10.759,-7.835 10.759,-14.444c0,-8.31 -6.763,-15.079 -15.081,-15.079z" fill="#FFFFFF"/>
   <path id="svg_241" d="m129.451,79.044c-10.216,0 -20.189,-0.6 -29.841,-1.717l0.691,3.529c3.474,17.78 3.976,48.417 4.035,59.996c4.507,1.057 12.802,2.504 24.438,2.504c12.26,0 22.098,-1.605 27.39,-2.706c0.146,-11.829 0.87,-42.749 4.602,-59.979l0.744,-3.448l0.894,-0.268c-10.612,1.365 -21.636,2.089 -32.953,2.089z" fill="#E3E3E3"/>
   <g id="svg_242">
    <path id="svg_243" d="m198.145,293.55l0,-3.853l3.873,0l0,3.853l-3.873,0z" fill="#F08100"/>
    <path id="svg_244" d="m223.393,290.779c-1.974,2.062 -4.422,3.092 -7.345,3.092c-2.885,0 -5.34,-0.992 -7.364,-2.979c-2.024,-1.986 -3.038,-4.422 -3.038,-7.308c0,-2.858 1.006,-5.307 3.018,-7.345c2.012,-2.037 4.454,-3.056 7.327,-3.056c2.1,0 4.017,0.583 5.75,1.746c1.733,1.164 3.03,2.728 3.891,4.688l-13.723,8.921c1.228,0.987 2.607,1.481 4.138,1.481c1.848,0 3.372,-0.659 4.574,-1.975c1.215,-1.329 1.828,-2.916 1.841,-4.764l3.929,0c-0.012,2.925 -1.012,5.423 -2.998,7.499zm-7.402,-13.703c-1.797,0 -3.322,0.638 -4.574,1.916c-1.253,1.278 -1.88,2.809 -1.88,4.593c0,0.506 0.088,1.063 0.266,1.671l10.325,-6.699c-1.24,-0.988 -2.619,-1.481 -4.137,-1.481z" fill="#F08100"/>
    <path id="svg_245" d="m241.999,287.951c0,1.645 -0.596,3.043 -1.784,4.194c-1.189,1.151 -2.6,1.726 -4.232,1.726c-1.442,0 -2.708,-0.447 -3.796,-1.346c-1.088,-0.912 -1.791,-2.09 -2.107,-3.531l3.759,-1.005c0.252,1.354 0.968,2.031 2.145,2.031c0.557,0 1.056,-0.203 1.499,-0.607c0.443,-0.419 0.664,-0.905 0.664,-1.462c0,-0.923 -0.702,-1.689 -2.106,-2.297c-1.127,-0.507 -2.016,-0.919 -2.667,-1.233c-0.651,-0.316 -1.066,-0.544 -1.243,-0.685c-1.404,-1.036 -2.107,-2.549 -2.107,-4.535c0,-1.62 0.588,-3.029 1.765,-4.232c1.189,-1.19 2.606,-1.784 4.252,-1.784c1.442,0 2.707,0.462 3.795,1.386c1.038,0.898 1.728,2.069 2.069,3.512l-3.796,0.986c-0.291,-1.329 -0.98,-1.992 -2.068,-1.992c-0.57,0 -1.07,0.215 -1.5,0.645c-0.43,0.43 -0.646,0.923 -0.646,1.48c0,0.911 0.702,1.678 2.106,2.297c1.113,0.481 1.99,0.883 2.628,1.205c0.64,0.323 1.061,0.561 1.263,0.712c1.405,1.062 2.107,2.572 2.107,4.535z" fill="#F08100"/>
   </g>
   <g id="svg_246">
    <path id="svg_247" d="m80.997,275.222c0,5.135 -1.792,9.563 -5.377,13.287s-7.91,5.585 -12.975,5.585c-4.765,0 -8.905,-1.652 -12.42,-4.961l0,16.236l-7.111,0l0,-30.147c0,-5.204 1.85,-9.655 5.55,-13.356c3.723,-3.725 8.188,-5.587 13.392,-5.587c5.181,0 9.632,1.862 13.356,5.587c3.723,3.723 5.585,8.175 5.585,13.356zm-7.112,0c0,-3.216 -1.168,-5.991 -3.504,-8.327c-2.335,-2.336 -5.111,-3.504 -8.326,-3.504c-3.238,0 -6.025,1.168 -8.361,3.504c-2.313,2.312 -3.47,5.088 -3.47,8.327c0,3.26 1.157,6.048 3.47,8.36c2.312,2.313 5.1,3.47 8.361,3.47c3.238,0 6.013,-1.156 8.326,-3.47c2.336,-2.336 3.504,-5.122 3.504,-8.36z" fill="#E30613"/>
    <path id="svg_248" d="m122.426,275.222c0,5.181 -1.862,9.632 -5.586,13.356c-3.724,3.677 -8.186,5.516 -13.392,5.516c-5.226,0 -9.69,-1.839 -13.391,-5.516c-3.7,-3.7 -5.551,-8.153 -5.551,-13.356c0,-5.204 1.851,-9.655 5.551,-13.356c3.723,-3.725 8.188,-5.587 13.391,-5.587c5.206,0 9.668,1.862 13.392,5.587c3.724,3.723 5.586,8.175 5.586,13.356zm-7.112,0c0,-3.216 -1.168,-5.991 -3.504,-8.327s-5.123,-3.504 -8.361,-3.504c-3.238,0 -6.024,1.168 -8.36,3.504c-2.313,2.312 -3.47,5.088 -3.47,8.327c0,3.26 1.156,6.048 3.47,8.36c2.312,2.313 5.1,3.47 8.36,3.47c3.262,0 6.048,-1.156 8.361,-3.47c2.336,-2.336 3.504,-5.122 3.504,-8.36z" fill="#E30613"/>
    <path id="svg_249" d="m128.707,252.116l0,-7.078l7.078,0l0,7.078l-7.078,0zm0,41.388l0,-36.635l7.078,0l0,36.635l-7.078,0z" fill="#E30613"/>
    <path id="svg_250" d="m168.787,293.504l0,-21.231c0,-2.406 -0.879,-4.487 -2.637,-6.245c-1.758,-1.757 -3.84,-2.637 -6.244,-2.637c-2.407,0 -4.488,0.88 -6.245,2.637c-1.758,1.758 -2.636,3.839 -2.636,6.245l0,21.231l-7.112,0l0,-21.231c0,-4.232 1.607,-7.956 4.821,-11.172c3.215,-3.214 6.939,-4.822 11.172,-4.822c4.208,0 7.921,1.608 11.136,4.822c3.238,3.239 4.857,6.963 4.857,11.172l0,21.231l-7.112,0z" fill="#E30613"/>
    <path id="svg_251" d="m192.561,263.98l0,29.523l-7.113,0l0,-29.523l-5.897,0l0,-7.111l5.897,0l0,-11.831l7.113,0l0,11.831l5.932,0l0,7.111l-5.932,0z" fill="#E30613"/>
   </g>
   <g id="svg_252">
    <path id="svg_253" d="m34.153,234.494c-3.607,3.771 -8.083,5.655 -13.426,5.655c-5.273,0 -9.76,-1.815 -13.46,-5.445c-3.701,-3.632 -5.55,-8.072 -5.55,-13.323c0,-5.249 1.838,-9.736 5.516,-13.461c3.724,-3.723 8.199,-5.585 13.426,-5.585c2.613,0 5.343,0.612 8.188,1.839l-2.914,6.521c-1.851,-0.833 -3.62,-1.248 -5.308,-1.248c-3.285,0 -6.071,1.168 -8.361,3.503c-2.289,2.336 -3.435,5.135 -3.435,8.396c0,3.262 1.157,6.036 3.47,8.326c2.312,2.291 5.122,3.435 8.429,3.435c3.354,0 6.129,-1.201 8.327,-3.607c2.244,-2.405 3.377,-5.309 3.399,-8.708l7.182,0c-0.025,5.342 -1.852,9.909 -5.483,13.702z" fill="#E30613"/>
    <path id="svg_254" d="m81.206,221.277c0,5.181 -1.862,9.633 -5.586,13.356c-3.724,3.677 -8.187,5.516 -13.392,5.516c-5.227,0 -9.691,-1.839 -13.391,-5.516c-3.7,-3.7 -5.551,-8.153 -5.551,-13.356c0,-5.204 1.851,-9.656 5.551,-13.357c3.725,-3.723 8.188,-5.585 13.391,-5.585c5.205,0 9.667,1.862 13.392,5.585c3.724,3.725 5.586,8.177 5.586,13.357zm-7.113,0c0,-3.215 -1.168,-5.991 -3.503,-8.327c-2.336,-2.335 -5.123,-3.503 -8.361,-3.503c-3.238,0 -6.025,1.168 -8.361,3.503c-2.313,2.313 -3.469,5.089 -3.469,8.327c0,3.261 1.155,6.047 3.469,8.36c2.313,2.312 5.1,3.469 8.361,3.469c3.261,0 6.048,-1.156 8.361,-3.469c2.335,-2.335 3.503,-5.121 3.503,-8.36z" fill="#E30613"/>
    <path id="svg_255" d="m122.777,221.277c0,5.181 -1.861,9.633 -5.586,13.356c-3.724,3.677 -8.187,5.516 -13.391,5.516c-5.228,0 -9.692,-1.839 -13.392,-5.516c-3.7,-3.7 -5.55,-8.153 -5.55,-13.356c0,-5.204 1.85,-9.656 5.55,-13.357c3.725,-3.723 8.188,-5.585 13.392,-5.585s9.667,1.862 13.391,5.585c3.725,3.725 5.586,8.177 5.586,13.357zm-7.112,0c0,-3.215 -1.167,-5.991 -3.504,-8.327c-2.336,-2.335 -5.123,-3.503 -8.36,-3.503c-3.238,0 -6.025,1.168 -8.362,3.503c-2.312,2.313 -3.469,5.089 -3.469,8.327c0,3.261 1.156,6.047 3.469,8.36c2.313,2.312 5.1,3.469 8.362,3.469c3.261,0 6.048,-1.156 8.36,-3.469c2.337,-2.335 3.504,-5.121 3.504,-8.36z" fill="#E30613"/>
    <path id="svg_256" d="m151.496,239.56l-13.391,-13.251l-2.324,2.323l0,10.928l-7.078,0l0,-48.465l7.078,0l0,27.511l15.715,-15.681l9.992,0l-18.352,18.353l18.352,18.282l-9.992,0z" fill="#E30613"/>
    <path id="svg_257" d="m165.833,198.172l0,-7.077l7.078,0l0,7.077l-7.078,0zm0,41.388l0,-36.635l7.078,0l0,36.635l-7.078,0z" fill="#E30613"/>
    <path id="svg_258" d="m205.202,239.56l0,-21.232c0,-2.404 -0.879,-4.486 -2.636,-6.243c-1.758,-1.759 -3.84,-2.637 -6.245,-2.637c-2.406,0 -4.487,0.878 -6.245,2.637c-1.758,1.757 -2.636,3.839 -2.636,6.243l0,21.232l-7.111,0l0,-21.232c0,-4.231 1.606,-7.955 4.821,-11.171c3.215,-3.214 6.939,-4.821 11.171,-4.821c4.208,0 7.921,1.607 11.137,4.821c3.237,3.239 4.857,6.962 4.857,11.171l0,21.232l-7.113,0z" fill="#E30613"/>
    <path id="svg_259" d="m249.723,248.753c-3.724,3.748 -8.176,5.62 -13.356,5.62c-3.215,0 -6.268,-0.82 -9.159,-2.464c-1.434,-0.809 -2.729,-1.763 -3.885,-2.86c-1.157,-1.101 -2.198,-2.343 -3.122,-3.731l6.001,-3.919c2.59,3.909 5.979,5.863 10.166,5.863c3.515,0 6.326,-1.156 8.43,-3.47c1.966,-2.174 3.088,-5.018 3.366,-8.534c-3.516,3.262 -7.644,4.892 -12.384,4.892c-5.09,0 -9.426,-1.861 -13.011,-5.585c-3.562,-3.7 -5.342,-8.13 -5.342,-13.287c0,-5.181 1.861,-9.633 5.584,-13.357c3.771,-3.723 8.223,-5.585 13.357,-5.585c5.18,0 9.632,1.862 13.356,5.585c3.747,3.725 5.621,8.177 5.621,13.357l0,14.224c-0.002,5.133 -1.876,9.551 -5.622,13.251zm-1.493,-27.476c0,-3.215 -1.168,-5.991 -3.503,-8.327c-2.336,-2.335 -5.123,-3.503 -8.361,-3.503c-3.238,0 -6.025,1.168 -8.361,3.503c-2.313,2.313 -3.469,5.089 -3.469,8.327c0,3.261 1.156,6.047 3.469,8.36c2.313,2.312 5.1,3.469 8.361,3.469c3.261,0 6.047,-1.156 8.361,-3.469c2.335,-2.335 3.503,-5.121 3.503,-8.36z" fill="#E30613"/>
   </g>
  </g>
 </g>
</svg>