<svg xmlns="http://www.w3.org/2000/svg" width="260" height="300"><style>.a{fill:#E30613;}.b{fill:#F08100;}</style><title>  background</title><rect height="302" width="262" y="-1" x="-1" fill="none"/><title>  Layer 1</title><circle r="84" cy="88.4" cx="129.5" class="a"/><path d="m202.2 130.4c7.1-12.4 11.3-26.7 11.3-42 0-46.4-37.6-84-84-84 -46.4 0-84 37.6-84 84 0 46.4 37.6 84 84 84 15.2 0 29.4-4 41.7-11.1l7.7 7.7c3.9 3.9 10 4.1 13.6 0.5l17.8-17.8c3.6-3.6 3.4-9.7-0.4-13.6l-7.7-7.7zm-4 6.3l5.2 5.2c1.9 1.9 1.9 4.9 0 6.8l-13.8 13.8c-1.9 1.9-4.9 1.9-6.8 0l-5.2-5.2c0.3-0.2 0.7-0.5 0.8-0.6 7.5-5.4 14-11.9 19.4-19.4 0.1-0.1 0.3-0.4 0.5-0.6z" class="a"/><path d="m129.5 4.4c-15.2 0-29.5 4.1-41.8 11.1l-8-8c-3.9-3.9-10.1-4.1-13.8-0.5l-18 18c-3.7 3.7-3.5 9.8 0.5 13.8l8 8c-3.3 5.8-6 12-7.8 18.6 23.4 8.6 51.1 13.5 80.8 13.5 29.7 0 57.4-5 80.8-13.5 -10-35.3-42.4-61.1-80.8-61.1zm-69 36.1l-5.5-5.5c-1.9-1.9-1.9-5 0-6.9l14-14c1.9-1.9 5-1.9 6.9 0l5.5 5.5c-0.2 0.2-0.6 0.4-0.7 0.5 -7.5 5.4-14 12-19.4 19.4 -0.1 0.1-0.5 0.6-0.7 0.9z" class="b"/><path d="m197.2 69.8c1.6 5.9 2.5 12.1 2.5 18.6 0 38.8-31.4 70.2-70.2 70.2 -38.8 0-70.2-31.4-70.2-70.2 0-6.4 0.9-12.7 2.5-18.6 -2.3-0.7-4.6-1.4-6.8-2.1 -1.8 6.6-2.8 13.5-2.8 20.7 0 42.7 34.6 77.3 77.3 77.3 42.7 0 77.3-34.6 77.3-77.3 0-7.2-1-14.1-2.8-20.7 -2.2 0.7-4.5 1.4-6.8 2.1z" class="b"/><path d="m129.5 11.1c-35.5 0-65.4 24-74.5 56.6 2.2 0.7 4.5 1.4 6.8 2.1 8.1-29.8 35.4-51.6 67.7-51.6s59.6 21.9 67.7 51.6c2.3-0.7 4.6-1.4 6.8-2.1 -9-32.6-39-56.6-74.5-56.6z" fill="#FAB600"/><path d="m160.6 46.7c-2.1 0-4.2 0.5-6.2 1.3l-4.5 2.1c-0.2-10.6-8.8-19.1-19.4-19.1 -10.6 0-19.2 8.5-19.4 19.1l-4.5-2.1c-2-0.9-4.1-1.3-6.2-1.3 -8.3 0-15.1 6.8-15.1 15.1 0 6.7 4.5 12.7 11 14.5l3.5 1 0.7 3.6c3.5 17.8 4 48.4 4 60 4.5 1.1 12.8 2.5 24.4 2.5 12.3 0 22.1-1.6 27.4-2.7 0.1-11.8 0.9-42.7 4.6-60l0.7-3.4 3.4-1c6.3-1.9 10.8-7.8 10.8-14.4 0-8.3-6.8-15.1-15.1-15.1z" fill="#FFF"/><path d="m129.5 79c-10.2 0-20.2-0.6-29.8-1.7l0.7 3.5c3.5 17.8 4 48.4 4 60 4.5 1.1 12.8 2.5 24.4 2.5 12.3 0 22.1-1.6 27.4-2.7 0.1-11.8 0.9-42.7 4.6-60l0.7-3.4 0.9-0.3c-10.6 1.4-21.6 2.1-33 2.1z" fill="#E3E3E3"/><path d="m198.1 293.6l0-3.9 3.9 0 0 3.9 -3.9 0z" class="b"/><path d="m223.4 290.8c-2 2.1-4.4 3.1-7.3 3.1 -2.9 0-5.3-1-7.4-3 -2-2-3-4.4-3-7.3 0-2.9 1-5.3 3-7.3 2-2 4.5-3.1 7.3-3.1 2.1 0 4 0.6 5.8 1.7 1.7 1.2 3 2.7 3.9 4.7l-13.7 8.9c1.2 1 2.6 1.5 4.1 1.5 1.8 0 3.4-0.7 4.6-2 1.2-1.3 1.8-2.9 1.8-4.8l3.9 0c0 2.9-1 5.4-3 7.5zm-7.4-13.7c-1.8 0-3.3 0.6-4.6 1.9 -1.3 1.3-1.9 2.8-1.9 4.6 0 0.5 0.1 1.1 0.3 1.7l10.3-6.7c-1.2-1-2.6-1.5-4.1-1.5z" class="b"/><path d="m242 288c0 1.6-0.6 3-1.8 4.2 -1.2 1.2-2.6 1.7-4.2 1.7 -1.4 0-2.7-0.4-3.8-1.3 -1.1-0.9-1.8-2.1-2.1-3.5l3.8-1c0.3 1.4 1 2 2.1 2 0.6 0 1.1-0.2 1.5-0.6 0.4-0.4 0.7-0.9 0.7-1.5 0-0.9-0.7-1.7-2.1-2.3 -1.1-0.5-2-0.9-2.7-1.2 -0.7-0.3-1.1-0.5-1.2-0.7 -1.4-1-2.1-2.5-2.1-4.5 0-1.6 0.6-3 1.8-4.2 1.2-1.2 2.6-1.8 4.3-1.8 1.4 0 2.7 0.5 3.8 1.4 1 0.9 1.7 2.1 2.1 3.5l-3.8 1c-0.3-1.3-1-2-2.1-2 -0.6 0-1.1 0.2-1.5 0.6 -0.4 0.4-0.6 0.9-0.6 1.5 0 0.9 0.7 1.7 2.1 2.3 1.1 0.5 2 0.9 2.6 1.2 0.6 0.3 1.1 0.6 1.3 0.7 1.4 1.1 2.1 2.6 2.1 4.5z" class="b"/><path d="m81 275.2c0 5.1-1.8 9.6-5.4 13.3s-7.9 5.6-13 5.6c-4.8 0-8.9-1.7-12.4-5l0 16.2 -7.1 0 0-30.1c0-5.2 1.9-9.7 5.6-13.4 3.7-3.7 8.2-5.6 13.4-5.6 5.2 0 9.6 1.9 13.4 5.6 3.7 3.7 5.6 8.2 5.6 13.4zm-7.1 0c0-3.2-1.2-6-3.5-8.3 -2.3-2.3-5.1-3.5-8.3-3.5 -3.2 0-6 1.2-8.4 3.5 -2.3 2.3-3.5 5.1-3.5 8.3 0 3.3 1.2 6 3.5 8.4 2.3 2.3 5.1 3.5 8.4 3.5 3.2 0 6-1.2 8.3-3.5 2.3-2.3 3.5-5.1 3.5-8.4z" class="a"/><path d="m122.4 275.2c0 5.2-1.9 9.6-5.6 13.4 -3.7 3.7-8.2 5.5-13.4 5.5 -5.2 0-9.7-1.8-13.4-5.5 -3.7-3.7-5.6-8.2-5.6-13.4 0-5.2 1.9-9.7 5.6-13.4 3.7-3.7 8.2-5.6 13.4-5.6 5.2 0 9.7 1.9 13.4 5.6 3.7 3.7 5.6 8.2 5.6 13.4zm-7.1 0c0-3.2-1.2-6-3.5-8.3s-5.1-3.5-8.4-3.5c-3.2 0-6 1.2-8.4 3.5 -2.3 2.3-3.5 5.1-3.5 8.3 0 3.3 1.2 6 3.5 8.4 2.3 2.3 5.1 3.5 8.4 3.5 3.3 0 6-1.2 8.4-3.5 2.3-2.3 3.5-5.1 3.5-8.4z" class="a"/><path d="m128.7 252.1l0-7.1 7.1 0 0 7.1 -7.1 0zm0 41.4l0-36.6 7.1 0 0 36.6 -7.1 0z" class="a"/><path d="m168.8 293.5l0-21.2c0-2.4-0.9-4.5-2.6-6.2 -1.8-1.8-3.8-2.6-6.2-2.6 -2.4 0-4.5 0.9-6.2 2.6 -1.8 1.8-2.6 3.8-2.6 6.2l0 21.2 -7.1 0 0-21.2c0-4.2 1.6-8 4.8-11.2 3.2-3.2 6.9-4.8 11.2-4.8 4.2 0 7.9 1.6 11.1 4.8 3.2 3.2 4.9 7 4.9 11.2l0 21.2 -7.1 0z" class="a"/><path d="m192.6 264l0 29.5 -7.1 0 0-29.5 -5.9 0 0-7.1 5.9 0 0-11.8 7.1 0 0 11.8 5.9 0 0 7.1 -5.9 0z" class="a"/><path d="m34.2 234.5c-3.6 3.8-8.1 5.7-13.4 5.7 -5.3 0-9.8-1.8-13.5-5.4 -3.7-3.6-5.5-8.1-5.5-13.3 0-5.2 1.8-9.7 5.5-13.5 3.7-3.7 8.2-5.6 13.4-5.6 2.6 0 5.3 0.6 8.2 1.8l-2.9 6.5c-1.9-0.8-3.6-1.2-5.3-1.2 -3.3 0-6.1 1.2-8.4 3.5 -2.3 2.3-3.4 5.1-3.4 8.4 0 3.3 1.2 6 3.5 8.3 2.3 2.3 5.1 3.4 8.4 3.4 3.4 0 6.1-1.2 8.3-3.6 2.2-2.4 3.4-5.3 3.4-8.7l7.2 0c0 5.3-1.9 9.9-5.5 13.7z" class="a"/><path d="m81.2 221.3c0 5.2-1.9 9.6-5.6 13.4 -3.7 3.7-8.2 5.5-13.4 5.5 -5.2 0-9.7-1.8-13.4-5.5 -3.7-3.7-5.6-8.2-5.6-13.4 0-5.2 1.9-9.7 5.6-13.4 3.7-3.7 8.2-5.6 13.4-5.6 5.2 0 9.7 1.9 13.4 5.6 3.7 3.7 5.6 8.2 5.6 13.4zm-7.1 0c0-3.2-1.2-6-3.5-8.3 -2.3-2.3-5.1-3.5-8.4-3.5 -3.2 0-6 1.2-8.4 3.5 -2.3 2.3-3.5 5.1-3.5 8.3 0 3.3 1.2 6 3.5 8.4 2.3 2.3 5.1 3.5 8.4 3.5 3.3 0 6-1.2 8.4-3.5 2.3-2.3 3.5-5.1 3.5-8.4z" class="a"/><path d="m122.8 221.3c0 5.2-1.9 9.6-5.6 13.4 -3.7 3.7-8.2 5.5-13.4 5.5 -5.2 0-9.7-1.8-13.4-5.5 -3.7-3.7-5.5-8.2-5.5-13.4 0-5.2 1.9-9.7 5.6-13.4 3.7-3.7 8.2-5.6 13.4-5.6s9.7 1.9 13.4 5.6c3.7 3.7 5.6 8.2 5.6 13.4zm-7.1 0c0-3.2-1.2-6-3.5-8.3 -2.3-2.3-5.1-3.5-8.4-3.5 -3.2 0-6 1.2-8.4 3.5 -2.3 2.3-3.5 5.1-3.5 8.3 0 3.3 1.2 6 3.5 8.4 2.3 2.3 5.1 3.5 8.4 3.5 3.3 0 6-1.2 8.4-3.5 2.3-2.3 3.5-5.1 3.5-8.4z" class="a"/><path d="m151.5 239.6l-13.4-13.3 -2.3 2.3 0 10.9 -7.1 0 0-48.5 7.1 0 0 27.5 15.7-15.7 10 0 -18.4 18.4 18.4 18.3 -10 0z" class="a"/><path d="m165.8 198.2l0-7.1 7.1 0 0 7.1 -7.1 0zm0 41.4l0-36.6 7.1 0 0 36.6 -7.1 0z" class="a"/><path d="m205.2 239.6l0-21.2c0-2.4-0.9-4.5-2.6-6.2 -1.8-1.8-3.8-2.6-6.2-2.6 -2.4 0-4.5 0.9-6.2 2.6 -1.8 1.8-2.6 3.8-2.6 6.2l0 21.2 -7.1 0 0-21.2c0-4.2 1.6-8 4.8-11.2 3.2-3.2 6.9-4.8 11.2-4.8 4.2 0 7.9 1.6 11.1 4.8 3.2 3.2 4.9 7 4.9 11.2l0 21.2 -7.1 0z" class="a"/><path d="m249.7 248.8c-3.7 3.7-8.2 5.6-13.4 5.6 -3.2 0-6.3-0.8-9.2-2.5 -1.4-0.8-2.7-1.8-3.9-2.9 -1.2-1.1-2.2-2.3-3.1-3.7l6-3.9c2.6 3.9 6 5.9 10.2 5.9 3.5 0 6.3-1.2 8.4-3.5 2-2.2 3.1-5 3.4-8.5 -3.5 3.3-7.6 4.9-12.4 4.9 -5.1 0-9.4-1.9-13-5.6 -3.6-3.7-5.3-8.1-5.3-13.3 0-5.2 1.9-9.6 5.6-13.4 3.8-3.7 8.2-5.6 13.4-5.6 5.2 0 9.6 1.9 13.4 5.6 3.7 3.7 5.6 8.2 5.6 13.4l0 14.2c0 5.1-1.9 9.6-5.6 13.3zm-1.5-27.5c0-3.2-1.2-6-3.5-8.3 -2.3-2.3-5.1-3.5-8.4-3.5 -3.2 0-6 1.2-8.4 3.5 -2.3 2.3-3.5 5.1-3.5 8.3 0 3.3 1.2 6 3.5 8.4 2.3 2.3 5.1 3.5 8.4 3.5 3.3 0 6-1.2 8.4-3.5 2.3-2.3 3.5-5.1 3.5-8.4z" class="a"/></svg>