<svg width="500" height="200" xmlns="http://www.w3.org/2000/svg">
 <style>.a{fill:#E30613;}.b{fill:#F08100;}</style>

 <title>background</title>
 <title>Layer 1</title>
 <g>
  <title>background</title>
  <rect fill="none" id="canvas_background" height="202" width="502" y="-1" x="-1"/>
 </g>
 <g>
  <title>Layer 1</title>
  <rect x="220" y="-150" id="svg_1" fill="none" width="262" height="302"/>
  <circle id="svg_2" class="a" cx="102.5" cy="100.4" r="84"/>
  <path id="svg_3" class="a" d="m175.2,142.4c7.1,-12.4 11.3,-26.7 11.3,-42c0,-46.4 -37.6,-84 -84,-84c-46.4,0 -84,37.6 -84,84c0,46.4 37.6,84 84,84c15.2,0 29.4,-4 41.7,-11.1l7.7,7.7c3.9,3.9 10,4.1 13.6,0.5l17.8,-17.8c3.6,-3.6 3.4,-9.7 -0.4,-13.6l-7.7,-7.7zm-4,6.3l5.2,5.2c1.9,1.9 1.9,4.9 0,6.8l-13.8,13.8c-1.9,1.9 -4.9,1.9 -6.8,0l-5.2,-5.2c0.3,-0.2 0.7,-0.5 0.8,-0.6c7.5,-5.4 14,-11.9 19.4,-19.4c0.1,-0.1 0.3,-0.4 0.5,-0.6l-0.1,0z"/>
  <path id="svg_4" class="b" d="m102.5,16.4c-15.2,0 -29.5,4.1 -41.8,11.1l-8,-8c-3.9,-3.9 -10.1,-4.1 -13.8,-0.5l-18,18c-3.7,3.7 -3.5,9.8 0.5,13.8l8,8c-3.3,5.8 -6,12 -7.8,18.6c23.4,8.6 51.1,13.5 80.8,13.5c29.7,0 57.4,-5 80.8,-13.5c-10,-35.3 -42.4,-61.1 -80.8,-61.1l0.1,0.1zm-69,36.1l-5.5,-5.5c-1.9,-1.9 -1.9,-5 0,-6.9l14,-14c1.9,-1.9 5,-1.9 6.9,0l5.5,5.5c-0.2,0.2 -0.6,0.4 -0.7,0.5c-7.5,5.4 -14,12 -19.4,19.4c-0.1,0.1 -0.5,0.6 -0.7,0.9l-0.1,0.1z"/>
  <path id="svg_5" class="b" d="m170.2,81.8c1.6,5.9 2.5,12.1 2.5,18.6c0,38.8 -31.4,70.2 -70.2,70.2c-38.8,0 -70.2,-31.4 -70.2,-70.2c0,-6.4 0.9,-12.7 2.5,-18.6c-2.3,-0.7 -4.6,-1.4 -6.8,-2.1c-1.8,6.6 -2.8,13.5 -2.8,20.7c0,42.7 34.6,77.3 77.3,77.3c42.7,0 77.3,-34.6 77.3,-77.3c0,-7.2 -1,-14.1 -2.8,-20.7c-2.2,0.7 -4.5,1.4 -6.8,2.1z"/>
  <path id="svg_6" fill="#FAB600" d="m102.5,23.1c-35.5,0 -65.4,24 -74.5,56.6c2.2,0.7 4.5,1.4 6.8,2.1c8.1,-29.8 35.4,-51.6 67.7,-51.6s59.6,21.9 67.7,51.6c2.3,-0.7 4.6,-1.4 6.8,-2.1c-9,-32.6 -39,-56.6 -74.5,-56.6z"/>
  <path id="svg_7" fill="#FFF" d="m133.6,58.7c-2.1,0 -4.2,0.5 -6.2,1.3l-4.5,2.1c-0.2,-10.6 -8.8,-19.1 -19.4,-19.1c-10.6,0 -19.2,8.5 -19.4,19.1l-4.5,-2.1c-2,-0.9 -4.1,-1.3 -6.2,-1.3c-8.3,0 -15.1,6.8 -15.1,15.1c0,6.7 4.5,12.7 11,14.5l3.5,1l0.7,3.6c3.5,17.8 4,48.4 4,60c4.5,1.1 12.8,2.5 24.4,2.5c12.3,0 22.1,-1.6 27.4,-2.7c0.1,-11.8 0.9,-42.7 4.6,-60l0.7,-3.4l3.4,-1c6.3,-1.9 10.8,-7.8 10.8,-14.4c0,-8.3 -6.8,-15.1 -15.1,-15.1l-0.1,-0.1z"/>
  <path id="svg_8" fill="#E3E3E3" d="m102.5,91c-10.2,0 -20.2,-0.6 -29.8,-1.7l0.7,3.5c3.5,17.8 4,48.4 4,60c4.5,1.1 12.8,2.5 24.4,2.5c12.3,0 22.1,-1.6 27.4,-2.7c0.1,-11.8 0.9,-42.7 4.6,-60l0.7,-3.4l0.9,-0.3c-10.6,1.4 -21.6,2.1 -33,2.1l0.1,0z"/>
  <path id="svg_9" class="b" d="m419.1,144.6l0,-3.9l3.9,0l0,3.9l-3.9,0z"/>
  <path id="svg_10" class="b" d="m444.4,141.8c-2,2.1 -4.4,3.1 -7.3,3.1c-2.9,0 -5.3,-1 -7.4,-3c-2,-2 -3,-4.4 -3,-7.3c0,-2.9 1,-5.3 3,-7.3c2,-2 4.5,-3.1 7.3,-3.1c2.1,0 4,0.6 5.8,1.7c1.7,1.2 3,2.7 3.9,4.7l-13.7,8.9c1.2,1 2.6,1.5 4.1,1.5c1.8,0 3.4,-0.7 4.6,-2c1.2,-1.3 1.8,-2.9 1.8,-4.8l3.9,0c0,2.9 -1,5.4 -3,7.5l0,0.1zm-7.4,-13.7c-1.8,0 -3.3,0.6 -4.6,1.9c-1.3,1.3 -1.9,2.8 -1.9,4.6c0,0.5 0.1,1.1 0.3,1.7l10.3,-6.7c-1.2,-1 -2.6,-1.5 -4.1,-1.5z"/>
  <path id="svg_11" class="b" d="m463,139c0,1.6 -0.6,3 -1.8,4.2c-1.2,1.2 -2.6,1.7 -4.2,1.7c-1.4,0 -2.7,-0.4 -3.8,-1.3c-1.1,-0.9 -1.8,-2.1 -2.1,-3.5l3.8,-1c0.3,1.4 1,2 2.1,2c0.6,0 1.1,-0.2 1.5,-0.6c0.4,-0.4 0.7,-0.9 0.7,-1.5c0,-0.9 -0.7,-1.7 -2.1,-2.3c-1.1,-0.5 -2,-0.9 -2.7,-1.2c-0.7,-0.3 -1.1,-0.5 -1.2,-0.7c-1.4,-1 -2.1,-2.5 -2.1,-4.5c0,-1.6 0.6,-3 1.8,-4.2c1.2,-1.2 2.6,-1.8 4.3,-1.8c1.4,0 2.7,0.5 3.8,1.4c1,0.9 1.7,2.1 2.1,3.5l-3.8,1c-0.3,-1.3 -1,-2 -2.1,-2c-0.6,0 -1.1,0.2 -1.5,0.6c-0.4,0.4 -0.6,0.9 -0.6,1.5c0,0.9 0.7,1.7 2.1,2.3c1.1,0.5 2,0.9 2.6,1.2c0.6,0.3 1.1,0.6 1.3,0.7c1.4,1.1 2.1,2.6 2.1,4.5l-0.2,0z"/>
  <path id="svg_12" class="a" d="m302,126.2c0,5.1 -1.8,9.6 -5.4,13.3s-7.9,5.6 -13,5.6c-4.8,0 -8.9,-1.7 -12.4,-5l0,16.2l-7.1,0l0,-30.1c0,-5.2 1.9,-9.7 5.6,-13.4c3.7,-3.7 8.2,-5.6 13.4,-5.6c5.2,0 9.6,1.9 13.4,5.6c3.7,3.7 5.6,8.2 5.6,13.4l-0.1,0zm-7.1,0c0,-3.2 -1.2,-6 -3.5,-8.3c-2.3,-2.3 -5.1,-3.5 -8.3,-3.5c-3.2,0 -6,1.2 -8.4,3.5c-2.3,2.3 -3.5,5.1 -3.5,8.3c0,3.3 1.2,6 3.5,8.4c2.3,2.3 5.1,3.5 8.4,3.5c3.2,0 6,-1.2 8.3,-3.5c2.3,-2.3 3.5,-5.1 3.5,-8.4z"/>
  <path id="svg_13" class="a" d="m343.4,126.2c0,5.2 -1.9,9.6 -5.6,13.4c-3.7,3.7 -8.2,5.5 -13.4,5.5c-5.2,0 -9.7,-1.8 -13.4,-5.5c-3.7,-3.7 -5.6,-8.2 -5.6,-13.4c0,-5.2 1.9,-9.7 5.6,-13.4c3.7,-3.7 8.2,-5.6 13.4,-5.6c5.2,0 9.7,1.9 13.4,5.6c3.7,3.7 5.6,8.2 5.6,13.4zm-7.1,0c0,-3.2 -1.2,-6 -3.5,-8.3s-5.1,-3.5 -8.4,-3.5c-3.2,0 -6,1.2 -8.4,3.5c-2.3,2.3 -3.5,5.1 -3.5,8.3c0,3.3 1.2,6 3.5,8.4c2.3,2.3 5.1,3.5 8.4,3.5c3.3,0 6,-1.2 8.4,-3.5c2.3,-2.3 3.5,-5.1 3.5,-8.4z"/>
  <path id="svg_14" class="a" d="m349.7,103.1l0,-7.1l7.1,0l0,7.1l-7.1,0zm0,41.4l0,-36.6l7.1,0l0,36.6l-7.1,0z"/>
  <path id="svg_15" class="a" d="m389.8,144.5l0,-21.2c0,-2.4 -0.9,-4.5 -2.6,-6.2c-1.8,-1.8 -3.8,-2.6 -6.2,-2.6c-2.4,0 -4.5,0.9 -6.2,2.6c-1.8,1.8 -2.6,3.8 -2.6,6.2l0,21.2l-7.1,0l0,-21.2c0,-4.2 1.6,-8 4.8,-11.2c3.2,-3.2 6.9,-4.8 11.2,-4.8c4.2,0 7.9,1.6 11.1,4.8c3.2,3.2 4.9,7 4.9,11.2l0,21.2l-7.1,0l-0.2,0z"/>
  <path id="svg_16" class="a" d="m413.6,115l0,29.5l-7.1,0l0,-29.5l-5.9,0l0,-7.1l5.9,0l0,-11.8l7.1,0l0,11.8l5.9,0l0,7.1l-5.9,0z"/>
  <path id="svg_17" class="a" d="m255.2,85.5c-3.6,3.8 -8.1,5.7 -13.4,5.7c-5.3,0 -9.8,-1.8 -13.5,-5.4c-3.7,-3.6 -5.5,-8.1 -5.5,-13.3c0,-5.2 1.8,-9.7 5.5,-13.5c3.7,-3.7 8.2,-5.6 13.4,-5.6c2.6,0 5.3,0.6 8.2,1.8l-2.9,6.5c-1.9,-0.8 -3.6,-1.2 -5.3,-1.2c-3.3,0 -6.1,1.2 -8.4,3.5c-2.3,2.3 -3.4,5.1 -3.4,8.4c0,3.3 1.2,6 3.5,8.3c2.3,2.3 5.1,3.4 8.4,3.4c3.4,0 6.1,-1.2 8.3,-3.6c2.2,-2.4 3.4,-5.3 3.4,-8.7l7.2,0c0,5.3 -1.9,9.9 -5.5,13.7z"/>
  <path id="svg_18" class="a" d="m302.2,72.3c0,5.2 -1.9,9.6 -5.6,13.4c-3.7,3.7 -8.2,5.5 -13.4,5.5c-5.2,0 -9.7,-1.8 -13.4,-5.5c-3.7,-3.7 -5.6,-8.2 -5.6,-13.4c0,-5.2 1.9,-9.7 5.6,-13.4c3.7,-3.7 8.2,-5.6 13.4,-5.6c5.2,0 9.7,1.9 13.4,5.6c3.7,3.7 5.6,8.2 5.6,13.4zm-7.1,0c0,-3.2 -1.2,-6 -3.5,-8.3c-2.3,-2.3 -5.1,-3.5 -8.4,-3.5c-3.2,0 -6,1.2 -8.4,3.5c-2.3,2.3 -3.5,5.1 -3.5,8.3c0,3.3 1.2,6 3.5,8.4c2.3,2.3 5.1,3.5 8.4,3.5c3.3,0 6,-1.2 8.4,-3.5c2.3,-2.3 3.5,-5.1 3.5,-8.4z"/>
  <path id="svg_19" class="a" d="m343.8,72.3c0,5.2 -1.9,9.6 -5.6,13.4c-3.7,3.7 -8.2,5.5 -13.4,5.5c-5.2,0 -9.7,-1.8 -13.4,-5.5c-3.7,-3.7 -5.5,-8.2 -5.5,-13.4c0,-5.2 1.9,-9.7 5.6,-13.4c3.7,-3.7 8.2,-5.6 13.4,-5.6s9.7,1.9 13.4,5.6c3.7,3.7 5.6,8.2 5.6,13.4l-0.1,0zm-7.1,0c0,-3.2 -1.2,-6 -3.5,-8.3c-2.3,-2.3 -5.1,-3.5 -8.4,-3.5c-3.2,0 -6,1.2 -8.4,3.5c-2.3,2.3 -3.5,5.1 -3.5,8.3c0,3.3 1.2,6 3.5,8.4c2.3,2.3 5.1,3.5 8.4,3.5c3.3,0 6,-1.2 8.4,-3.5c2.3,-2.3 3.5,-5.1 3.5,-8.4z"/>
  <path id="svg_20" class="a" d="m372.5,90.6l-13.4,-13.3l-2.3,2.3l0,10.9l-7.1,0l0,-48.5l7.1,0l0,27.5l15.7,-15.7l10,0l-18.4,18.4l18.4,18.3l-10,0l0,0.1z"/>
  <path id="svg_21" class="a" d="m386.8,49.2l0,-7.1l7.1,0l0,7.1l-7.1,0zm0,41.4l0,-36.6l7.1,0l0,36.6l-7.1,0z"/>
  <path id="svg_22" class="a" d="m426.2,90.6l0,-21.2c0,-2.4 -0.9,-4.5 -2.6,-6.2c-1.8,-1.8 -3.8,-2.6 -6.2,-2.6c-2.4,0 -4.5,0.9 -6.2,2.6c-1.8,1.8 -2.6,3.8 -2.6,6.2l0,21.2l-7.1,0l0,-21.2c0,-4.2 1.6,-8 4.8,-11.2c3.2,-3.2 6.9,-4.8 11.2,-4.8c4.2,0 7.9,1.6 11.1,4.8c3.2,3.2 4.9,7 4.9,11.2l0,21.2l-7.1,0l-0.2,0z"/>
  <path id="svg_23" class="a" d="m470.7,99.8c-3.7,3.7 -8.2,5.6 -13.4,5.6c-3.2,0 -6.3,-0.8 -9.2,-2.5c-1.4,-0.8 -2.7,-1.8 -3.9,-2.9c-1.2,-1.1 -2.2,-2.3 -3.1,-3.7l6,-3.9c2.6,3.9 6,5.9 10.2,5.9c3.5,0 6.3,-1.2 8.4,-3.5c2,-2.2 3.1,-5 3.4,-8.5c-3.5,3.3 -7.6,4.9 -12.4,4.9c-5.1,0 -9.4,-1.9 -13,-5.6c-3.6,-3.7 -5.3,-8.1 -5.3,-13.3c0,-5.2 1.9,-9.6 5.6,-13.4c3.8,-3.7 8.2,-5.6 13.4,-5.6c5.2,0 9.6,1.9 13.4,5.6c3.7,3.7 5.6,8.2 5.6,13.4l0,14.2c0,5.1 -1.9,9.6 -5.6,13.3l-0.1,0zm-1.5,-27.5c0,-3.2 -1.2,-6 -3.5,-8.3c-2.3,-2.3 -5.1,-3.5 -8.4,-3.5c-3.2,0 -6,1.2 -8.4,3.5c-2.3,2.3 -3.5,5.1 -3.5,8.3c0,3.3 1.2,6 3.5,8.4c2.3,2.3 5.1,3.5 8.4,3.5c3.3,0 6,-1.2 8.4,-3.5c2.3,-2.3 3.5,-5.1 3.5,-8.4z"/>
 </g>
</svg>